HIERARCHY
ROOT Hips
{
	OFFSET 0.00000 0.00000 0.00000
	CHANNELS 6 Xposition Yposition Zposition Zrotation Yrotation Xrotation 
	JOINT LHipJoint
	{
		OFFSET 0 0 0
		CHANNELS 3 Zrotation Yrotation Xrotation
		JOINT LeftUpLeg
		{
			OFFSET 1.58895 -1.83665 0.71753
			CHANNELS 3 Zrotation Yrotation Xrotation
			JOINT LeftLeg
			{
				OFFSET 2.50528 -6.88321 0.00000
				CHANNELS 3 Zrotation Yrotation Xrotation
				JOINT LeftFoot
				{
					OFFSET 2.63244 -7.23257 0.00000
					CHANNELS 3 Zrotation Yrotation Xrotation
					JOINT LeftToeBase
					{
						OFFSET 0.23691 -0.65090 1.72750
						CHANNELS 3 Zrotation Yrotation Xrotation
						End Site
						{
							OFFSET 0.00000 -0.00000 0.92561
						}
					}
				}
			}
		}
	}
	JOINT RHipJoint
	{
		OFFSET 0 0 0
		CHANNELS 3 Zrotation Yrotation Xrotation
		JOINT RightUpLeg
		{
			OFFSET -1.51435 -1.83665 0.71753
			CHANNELS 3 Zrotation Yrotation Xrotation
			JOINT RightLeg
			{
				OFFSET -2.54551 -6.99375 0.00000
				CHANNELS 3 Zrotation Yrotation Xrotation
				JOINT RightFoot
				{
					OFFSET -2.66027 -7.30903 0.00000
					CHANNELS 3 Zrotation Yrotation Xrotation
					JOINT RightToeBase
					{
						OFFSET -0.22981 -0.63138 2.03959
						CHANNELS 3 Zrotation Yrotation Xrotation
						End Site
						{
							OFFSET -0.00000 -0.00000 1.07060
						}
					}
				}
			}
		}
	}
	JOINT LowerBack
	{
		OFFSET 0 0 0
		CHANNELS 3 Zrotation Yrotation Xrotation
		JOINT Spine
		{
			OFFSET -0.02651 1.86275 -0.11152
			CHANNELS 3 Zrotation Yrotation Xrotation
			JOINT Spine1
			{
				OFFSET 0.01019 1.86224 0.04087
				CHANNELS 3 Zrotation Yrotation Xrotation
				JOINT Neck
				{
					OFFSET 0 0 0
					CHANNELS 3 Zrotation Yrotation Xrotation
					JOINT Neck1
					{
						OFFSET -0.01926 1.80512 0.08867
						CHANNELS 3 Zrotation Yrotation Xrotation
						JOINT Head
						{
							OFFSET 0.05516 1.76451 -0.38475
							CHANNELS 3 Zrotation Yrotation Xrotation
							End Site
							{
								OFFSET 0.01592 1.82587 -0.14001
							}
						}
					}
				}
				JOINT LeftShoulder
				{
					OFFSET 0 0 0
					CHANNELS 3 Zrotation Yrotation Xrotation
					JOINT LeftArm
					{
						OFFSET 3.47116 1.51376 0.14491
						CHANNELS 3 Zrotation Yrotation Xrotation
						JOINT LeftForeArm
						{
							OFFSET 4.78095 -0.00000 0.00000
							CHANNELS 3 Zrotation Yrotation Xrotation
							JOINT LeftHand
							{
								OFFSET 3.58615 -0.00000 -0.00000
								CHANNELS 3 Zrotation Yrotation Xrotation
								JOINT LeftFingerBase
								{
									OFFSET 0 0 0
									CHANNELS 3 Zrotation Yrotation Xrotation
									JOINT LeftHandIndex1
									{
										OFFSET 0.65981 -0.00000 0.00000
										CHANNELS 3 Zrotation Yrotation Xrotation
										End Site
										{
											OFFSET 0.53196 -0.00000 0.00000
										}
									}
								}
								JOINT LThumb
								{
									OFFSET 0 0 0
									CHANNELS 3 Zrotation Yrotation Xrotation
									End Site
									{
										OFFSET 0.54008 -0.00000 0.54008
									}
								}
							}
						}
					}
				}
				JOINT RightShoulder
				{
					OFFSET 0 0 0
					CHANNELS 3 Zrotation Yrotation Xrotation
					JOINT RightArm
					{
						OFFSET -3.31725 1.61216 0.35156
						CHANNELS 3 Zrotation Yrotation Xrotation
						JOINT RightForeArm
						{
							OFFSET -4.48913 -0.00000 0.00000
							CHANNELS 3 Zrotation Yrotation Xrotation
							JOINT RightHand
							{
								OFFSET -3.70510 -0.00000 0.00000
								CHANNELS 3 Zrotation Yrotation Xrotation
								JOINT RightFingerBase
								{
									OFFSET 0 0 0
									CHANNELS 3 Zrotation Yrotation Xrotation
									JOINT RightHandIndex1
									{
										OFFSET -0.44914 -0.00000 0.00000
										CHANNELS 3 Zrotation Yrotation Xrotation
										End Site
										{
											OFFSET -0.36211 -0.00000 0.00000
										}
									}
								}
								JOINT RThumb
								{
									OFFSET 0 0 0
									CHANNELS 3 Zrotation Yrotation Xrotation
									End Site
									{
										OFFSET -0.36763 -0.00000 0.36763
									}
								}
							}
						}
					}
				}
			}
		}
	}
}
MOTION
Frames: 5
Frame Time: .0083333
-0.9229 18.3194 5.4143 -4.8631 -3.9672 3.8331 0.0000 0.0000 0.0000 -11.7078 -2.0155 13.3865 0.7978 -5.7011 -15.9196 -0.9648 17.4623 -10.5003 0.1119 -2.1572 -5.9404 0.0000 0.0000 0.0000 20.6289 -2.9016 2.8591 0.0000 0.0000 -0.0000 -0.6167 -3.3777 -16.4452 -0.1603 -2.5795 7.1101 3.2446 0.8399 12.3791 1.5444 1.7197 -0.7669 -0.5153 0.7360 -7.7315 1.4257 -1.3955 -19.5912 1.0419 -2.6014 19.1231 -0.2272 -0.9874 9.2520 -0.0000 -0.0000 0.0000 -84.5298 -39.0302 52.0909 107.3786 -58.8275 -74.9910 -0.0000 0.0000 -33.6796 23.3952 -19.9505 -8.3974 -7.1250 0.0000 -0.0000 -3.2081 8.4282 2.7076 -0.0000 -0.0000 0.0000 68.5951 32.0307 40.7283 -120.0762 56.2896 -85.7223 0.0000 -0.0000 -32.0872 -19.6987 -44.1333 13.9987 7.1250 -0.0000 -0.0000 32.0869 -73.7584 -22.4054
-0.9200 18.3120 5.4102 -4.8476 -4.0292 3.5454 0.0000 0.0000 0.0000 -11.7452 -1.8766 13.7211 0.8057 -5.7287 -15.9994 -0.9645 17.4642 -10.5248 0.1101 -2.1394 -5.8912 0.0000 0.0000 0.0000 20.5839 -2.9795 3.1509 0.0000 -0.0000 0.0000 -0.6170 -3.3565 -16.4359 -0.1507 -2.5014 6.8934 3.2897 0.8677 12.4974 1.5031 1.7692 -0.8603 -0.5967 0.7538 -7.8953 1.4715 -1.4387 -19.5245 0.9877 -2.6694 19.4660 -0.2640 -1.0175 9.3578 -0.0000 -0.0000 0.0000 -84.7034 -38.9763 52.2856 106.7548 -58.9122 -74.4571 -0.0000 0.0000 -33.7710 23.2179 -20.0364 -8.3610 -7.1250 0.0000 -0.0000 -3.3298 8.3651 2.8148 -0.0000 -0.0000 0.0000 68.5606 31.9062 40.6800 -119.4599 56.4521 -85.2092 0.0000 -0.0000 -32.2630 -19.6130 -44.2894 13.9729 7.1250 -0.0000 -0.0000 32.5548 -73.8470 -22.8086
-0.9168 18.3049 5.4040 -4.8964 -4.0808 3.2959 0.0000 0.0000 0.0000 -11.7041 -1.6795 13.9656 0.8109 -5.7466 -16.0508 -0.9600 17.4163 -10.4527 0.1148 -2.1844 -6.0156 0.0000 0.0000 0.0000 20.6108 -3.0481 3.3980 0.0000 0.0000 -0.0000 -0.6174 -3.3277 -16.4233 -0.1483 -2.4817 6.8388 3.3179 0.8860 12.4493 1.5236 1.7965 -0.8440 -0.5948 0.7672 -7.8494 1.4114 -1.4542 -19.5238 1.0413 -2.6917 19.7127 -0.2401 -1.0227 9.4457 0.0000 -0.0000 0.0000 -84.9011 -39.0714 52.4071 106.1848 -58.9867 -73.9688 -0.0000 0.0000 -33.8544 23.1471 -20.0677 -8.3453 -7.1250 0.0000 -0.0000 -3.3780 8.3431 2.8572 0.0000 -0.0000 0.0000 68.4728 31.9553 40.5780 -118.9572 56.5815 -84.7899 0.0000 -0.0000 -32.6212 -19.3635 -44.5426 13.8481 7.1250 -0.0000 -0.0000 33.4532 -73.9486 -23.5419
-0.9146 18.2994 5.3976 -4.9203 -4.1633 3.0748 0.0000 0.0000 0.0000 -11.6893 -1.5079 14.1855 0.8151 -5.7610 -16.0924 -0.9565 17.3868 -10.4362 0.1153 -2.1895 -6.0295 0.0000 0.0000 0.0000 20.6089 -3.0759 3.6203 0.0000 -0.0000 0.0000 -0.6186 -3.2655 -16.4007 -0.1555 -2.5412 7.0038 3.3423 0.8839 12.5207 1.4955 1.8013 -0.9157 -0.6413 0.7653 -7.9656 1.3626 -1.4318 -19.5185 1.1683 -2.6847 20.0314 -0.1888 -1.0039 9.5597 -0.0000 0.0000 0.0000 -84.9952 -39.0084 52.4802 105.6865 -59.0495 -73.5415 -0.0000 0.0000 -33.8558 23.2245 -19.8360 -8.2845 -7.1250 0.0000 -0.0000 -3.3074 8.5769 2.7819 -0.0000 0.0000 0.0000 68.5512 31.8850 40.6493 -118.5423 56.6860 -84.4434 0.0000 -0.0000 -32.8215 -19.2896 -44.4884 13.7805 7.1250 -0.0000 -0.0000 33.4058 -73.8798 -23.4596
-0.9138 18.2957 5.3925 -4.8397 -4.2535 2.8586 0.0000 0.0000 0.0000 -11.7874 -1.3940 14.4225 0.8198 -5.7774 -16.1399 -0.9576 17.4012 -10.4698 0.1070 -2.1088 -5.8065 0.0000 0.0000 0.0000 20.4969 -3.0972 3.8348 0.0000 0.0000 -0.0000 -0.6203 -3.1898 -16.3766 -0.1634 -2.6042 7.1786 3.1907 0.8796 12.4978 1.4741 1.7702 -0.9244 -0.5725 0.7562 -7.9664 1.4874 -1.3871 -19.5457 1.0619 -2.6427 20.3020 -0.2423 -0.9832 9.6567 -0.0000 0.0000 0.0000 -85.0663 -38.9915 52.4716 105.2626 -59.1012 -73.1779 -0.0000 0.0000 -33.8452 23.1964 -19.5869 -8.1751 -7.1250 0.0000 -0.0000 -3.3032 8.8458 2.7607 -0.0000 0.0000 0.0000 68.5747 31.9698 40.7767 -118.0901 56.7977 -84.0652 0.0000 -0.0000 -32.7675 -19.3318 -44.5085 13.8165 7.1250 -0.0000 -0.0000 33.4060 -73.9107 -23.4808
